HIERARCHY
ROOT hip
{
  OFFSET 107.329 84.5691 82.1543
  CHANNELS 6 Xposition Yposition Zposition Zrotation Xrotation Yrotation
  JOINT abdomen
  {
    OFFSET 0 20.6881 -0.73152
    CHANNELS 3 Zrotation Xrotation Yrotation
    JOINT chest
    {
      OFFSET 0 11.7043 -0.48768
      CHANNELS 3 Zrotation Xrotation Yrotation
      JOINT neck
      {
        OFFSET 0 22.1894 -2.19456
        CHANNELS 3 Zrotation Xrotation Yrotation
        JOINT head
        {
          OFFSET -0.24384 7.07133 1.2192
          CHANNELS 3 Zrotation Xrotation Yrotation
          JOINT leftEye
          {
            OFFSET 4.14528 8.04674 8.04672
            CHANNELS 3 Zrotation Xrotation Yrotation
            End Site
            {
              OFFSET 1 0 0
            }
          }
          JOINT rightEye
          {
            OFFSET -3.6576 8.04674 8.04672
            CHANNELS 3 Zrotation Xrotation Yrotation
            End Site
            {
              OFFSET 1 0 0
            }
          }
        }
      }
      JOINT rCollar
      {
        OFFSET -2.68224 19.2634 -4.8768
        CHANNELS 3 Zrotation Xrotation Yrotation
        JOINT rShldr
        {
          OFFSET -8.77824 -1.95073 1.46304
          CHANNELS 3 Zrotation Xrotation Yrotation
          JOINT rForeArm
          {
            OFFSET -28.1742 -1.7115 0.48768
            CHANNELS 3 Zrotation Xrotation Yrotation
            JOINT rHand
            {
              OFFSET -22.5879 0.773209 7.07136
              CHANNELS 3 Zrotation Xrotation Yrotation
              JOINT rThumb1
              {
                OFFSET -1.2192 -0.487915 3.41376
                CHANNELS 3 Zrotation Xrotation Yrotation
                JOINT rThumb2
                {
                  OFFSET -3.37035 -0.52449 3.41376
                  CHANNELS 3 Zrotation Xrotation Yrotation
                  End Site
                  {
                    OFFSET -1.78271 -1.18214 1.43049
                  }
                }
              }
              JOINT rIndex1
              {
                OFFSET -7.75947 0.938293 5.60832
                CHANNELS 3 Zrotation Xrotation Yrotation
                JOINT rIndex2
                {
                  OFFSET -2.54057 -0.884171 1.56538
                  CHANNELS 3 Zrotation Xrotation Yrotation
                  End Site
                  {
                    OFFSET -1.62519 -0.234802 1.16502
                  }
                }
              }
              JOINT rMid1
              {
                OFFSET -8.24714 1.18213 3.41376
                CHANNELS 3 Zrotation Xrotation Yrotation
                JOINT rMid2
                {
                  OFFSET -3.10165 -0.590103 1.0647
                  CHANNELS 3 Zrotation Xrotation Yrotation
                  End Site
                  {
                    OFFSET -2.48547 -0.328903 0.83742
                  }
                }
              }
              JOINT rRing1
              {
                OFFSET -8.82822 0.546677 1.51678
                CHANNELS 3 Zrotation Xrotation Yrotation
                JOINT rRing2
                {
                  OFFSET -2.60934 -0.819778 -0.0198488
                  CHANNELS 3 Zrotation Xrotation Yrotation
                  End Site
                  {
                    OFFSET -2.33842 -0.294052 0.168128
                  }
                }
              }
              JOINT rPinky1
              {
                OFFSET -8.27202 -0.0477905 -0.4584
                CHANNELS 3 Zrotation Xrotation Yrotation
                JOINT rPinky2
                {
                  OFFSET -1.82734 -0.647385 -0.700984
                  CHANNELS 3 Zrotation Xrotation Yrotation
                  End Site
                  {
                    OFFSET -1.69225 -0.51767 -0.607171
                  }
                }
              }
            }
          }
        }
      }
      JOINT lCollar
      {
        OFFSET 2.68224 19.2634 -4.8768
        CHANNELS 3 Zrotation Xrotation Yrotation
        JOINT lShldr
        {
          OFFSET 8.77824 -1.95073 1.46304
          CHANNELS 3 Zrotation Xrotation Yrotation
          JOINT lForeArm
          {
            OFFSET 28.1742 -1.7115 0.48768
            CHANNELS 3 Zrotation Xrotation Yrotation
            JOINT lHand
            {
              OFFSET 22.5879 0.773209 7.07136
              CHANNELS 3 Zrotation Xrotation Yrotation
              JOINT lThumb1
              {
                OFFSET 1.2192 -0.487915 3.41376
                CHANNELS 3 Zrotation Xrotation Yrotation
                JOINT lThumb2
                {
                  OFFSET 3.37035 -0.52449 3.41376
                  CHANNELS 3 Zrotation Xrotation Yrotation
                  End Site
                  {
                    OFFSET 1.78271 -1.18214 1.43049
                  }
                }
              }
              JOINT lIndex1
              {
                OFFSET 7.75947 0.938293 5.60832
                CHANNELS 3 Zrotation Xrotation Yrotation
                JOINT lIndex2
                {
                  OFFSET 2.54057 -0.884171 1.56538
                  CHANNELS 3 Zrotation Xrotation Yrotation
                  End Site
                  {
                    OFFSET 1.62519 -0.234802 1.16502
                  }
                }
              }
              JOINT lMid1
              {
                OFFSET 8.24714 1.18213 3.41376
                CHANNELS 3 Zrotation Xrotation Yrotation
                JOINT lMid2
                {
                  OFFSET 3.10165 -0.590103 1.0647
                  CHANNELS 3 Zrotation Xrotation Yrotation
                  End Site
                  {
                    OFFSET 2.48547 -0.328903 0.83742
                  }
                }
              }
              JOINT lRing1
              {
                OFFSET 8.82822 0.546677 1.51678
                CHANNELS 3 Zrotation Xrotation Yrotation
                JOINT lRing2
                {
                  OFFSET 2.60934 -0.819778 -0.0198488
                  CHANNELS 3 Zrotation Xrotation Yrotation
                  End Site
                  {
                    OFFSET 2.33842 -0.294052 0.168128
                  }
                }
              }
              JOINT lPinky1
              {
                OFFSET 8.27202 -0.0477905 -0.4584
                CHANNELS 3 Zrotation Xrotation Yrotation
                JOINT lPinky2
                {
                  OFFSET 1.82734 -0.647385 -0.700984
                  CHANNELS 3 Zrotation Xrotation Yrotation
                  End Site
                  {
                    OFFSET 1.69225 -0.51767 -0.607171
                  }
                }
              }
            }
          }
        }
      }
    }
  }
  JOINT rButtock
  {
    OFFSET -8.77824 4.35084 1.2192
    CHANNELS 3 Zrotation Xrotation Yrotation
    JOINT rThigh
    {
      OFFSET 0 -1.70687 -2.19456
      CHANNELS 3 Zrotation Xrotation Yrotation
      JOINT rShin
      {
        OFFSET 0 -36.8199 0.73152
        CHANNELS 3 Zrotation Xrotation Yrotation
        JOINT rFoot
        {
          OFFSET 0.73152 -45.1104 -5.12064
          CHANNELS 3 Zrotation Xrotation Yrotation
          End Site
          {
            OFFSET -1.1221 -3.69964 12.103
          }
        }
      }
    }
  }
  JOINT lButtock
  {
    OFFSET 8.77824 4.35084 1.2192
    CHANNELS 3 Zrotation Xrotation Yrotation
    JOINT lThigh
    {
      OFFSET 0 -1.70687 -2.19456
      CHANNELS 3 Zrotation Xrotation Yrotation
      JOINT lShin
      {
        OFFSET 0 -36.8199 0.73152
        CHANNELS 3 Zrotation Xrotation Yrotation
        JOINT lFoot
        {
          OFFSET -0.73152 -45.1104 -5.12064
          CHANNELS 3 Zrotation Xrotation Yrotation
          End Site
          {
            OFFSET 1.1221 -3.69964 12.103
          }
        }
      }
    }
  }
}
MOTION
Frames:	5
Frame Time:	0.00833333
-25.4479 83.0696 199.179 2.49981 0.0085641 -0.0474185 -3.29166 -0.00200304 -0.0897137 -0.910505 0.0108236 -0.157568 9.58381e-015 7.95139e-016 -2.98177e-016 2.8479e-014 3.18055e-015 -7.45443e-016 -0 0 0 -0 0 0 4.72123e-015 2.21109e-016 -9.93923e-017 9.81253e-014 4.33599e-015 -1.98785e-015 1.67575e-012 -3.33362e-013 -6.67917e-014 1.8903e-011 1.30761e-012 -6.61555e-013 4.46367e-011 2.11647e-012 -1.57756e-012 7.70744e-011 3.65764e-012 -2.7313e-012 4.46399e-011 2.11586e-012 -1.5871e-012 7.73091 5.47488 0.417314 4.46371e-011 2.11646e-012 -1.57119e-012 2.90554 0.965183 0.102902 4.46416e-011 2.11666e-012 -1.57596e-012 10.2786 0.731801 0.0259123 4.46325e-011 2.11825e-012 -1.56483e-012 2.22167 -0.733487 -0.20892 4.72135e-015 2.20138e-016 -2.98177e-016 9.31574e-014 4.04403e-015 -3.77691e-015 1.63138e-012 6.49827e-013 -9.22361e-014 1.89242e-011 3.15571e-013 -6.23389e-013 4.45985e-011 2.09986e-012 -1.57756e-012 7.70259e-011 3.63219e-012 -2.70029e-012 4.45946e-011 2.10235e-012 -1.56801e-012 -7.73091 5.47488 -0.417314 4.45991e-011 2.10016e-012 -1.57437e-012 -2.90554 0.965183 -0.102902 4.45907e-011 2.09986e-012 -1.5696e-012 -10.2786 0.731801 -0.0259123 4.46001e-011 2.10195e-012 -1.57119e-012 -2.22167 -0.733487 0.20892 -2.03217e-016 0 -3.88251e-019 -2.13985 -1.93291 0.0183561 -0.00781364 -2.07877 -0.0636871 -0.356837 4.00069 0.117412 2.03217e-016 0 3.88251e-019 -2.8801 -9.67725 0.338925 -0.0100246 11.9465 -0.261596 0.457864 -2.28012 -0.00589626 
-27.4924 78.7971 186.743 8.24338 3.50128 -49.2368 -8.02457 -3.61844 -1.32101 -1.70152 1.23865 -0.461182 2.18216 0.232248 1.61133 0.993201 -1.05763 2.29318 -0 0 0 -0 0 0 2.97389e-014 9.05014e-014 2.40188e-014 22.3717 10.6908 -2.38803 -4.75383 -2.27803 7.29262 0.00492683 -1.56187 -0.219215 8.24406e-010 -4.88649e-011 -2.88301e-010 1.42655e-009 -8.57366e-011 -4.95928e-010 8.2441e-010 -4.88665e-011 -2.88311e-010 7.73091 5.47488 0.417314 8.24405e-010 -4.88666e-011 -2.88295e-010 2.90554 0.965183 0.102902 8.24412e-010 -4.88666e-011 -2.88301e-010 10.2786 0.731801 0.0259123 8.24401e-010 -4.88651e-011 -2.8829e-010 2.22167 -0.733487 -0.20892 2.97126e-014 9.04894e-014 2.38631e-014 -15.2108 -1.16335 5.06602 2.54354 -0.948234 -4.16962 -0.0838667 -6.48187 0.890557 1.08195e-010 2.91898e-010 6.18616e-010 1.76459e-010 5.09921e-010 1.06905e-009 1.08192e-010 2.919e-010 6.18622e-010 -7.73091 5.47488 -0.417314 1.08194e-010 2.91899e-010 6.1862e-010 -2.90554 0.965183 -0.102902 1.08186e-010 2.91898e-010 6.18621e-010 -10.2786 0.731801 -0.0259123 1.08197e-010 2.91899e-010 6.18617e-010 -2.22167 -0.733487 0.20892 -2.03217e-016 0 -3.88251e-019 -3.10295 -10.9142 4.31427 -0.0297314 13.8263 0.128579 -0.291051 1.16344 -0.846746 2.03217e-016 0 3.88251e-019 -4.5078 -20.3087 -1.03407 0.150858 21.1222 -0.21046 0.442116 -6.44611 0.344819 
-27.7205 78.7345 186.262 16.7738 -2.08505 -100.792 -13.1576 -7.44292 -2.64263 -2.52884 2.54057 -0.78344 4.47965 0.49048 3.3224 2.13253 -2.18221 4.73549 -0 0 0 -0 0 0 5.72226e-014 1.90643e-013 5.22058e-014 47.0551 21.9618 -5.18937 -9.14718 -4.55776 15.0282 -0.00287449 -3.19879 -0.449517 1.64758e-009 -8.79387e-011 -6.1277e-010 2.85119e-009 -1.54634e-010 -1.0543e-009 1.64759e-009 -8.79415e-011 -6.12779e-010 7.73091 5.47488 0.417314 1.64758e-009 -8.79423e-011 -6.12763e-010 2.90554 0.965183 0.102902 1.64759e-009 -8.79426e-011 -6.12771e-010 10.2786 0.731801 0.0259123 1.64758e-009 -8.79412e-011 -6.1276e-010 2.22167 -0.733487 -0.20892 5.71663e-014 1.90619e-013 5.20971e-014 -31.0607 -2.37399 10.4653 5.08573 -1.93545 -8.58603 0.0536998 -13.4229 1.8842 1.85822e-010 6.07167e-010 1.32218e-009 2.98852e-010 1.06084e-009 2.28496e-009 1.8582e-010 6.07168e-010 1.32218e-009 -7.73091 5.47488 -0.417314 1.85821e-010 6.07169e-010 1.32218e-009 -2.90554 0.965183 -0.102902 1.85813e-010 6.07167e-010 1.32218e-009 -10.2786 0.731801 -0.0259123 1.85826e-010 6.07168e-010 1.32217e-009 -2.22167 -0.733487 0.20892 -2.03217e-016 0 -3.88251e-019 -2.56704 -20.1236 9.31785 -0.183504 30.5127 0.373972 -0.332748 -1.97748 -1.87671 2.03217e-016 0 3.88251e-019 -6.84359 -31.5379 -2.73619 0.302309 30.8116 -0.154331 0.477009 -10.8262 0.70034 
-27.9566 78.5584 185.763 16.4175 -13.4393 -146.2 -17.9636 -10.8303 -3.84429 -3.24444 3.69377 -1.07031 6.50734 0.69454 4.8343 3.23324 -3.15257 6.88885 -0 0 0 -0 0 0 7.97741e-014 2.71062e-013 7.22551e-014 70.1814 31.829 -8.29371 -12.5597 -6.39218 22.0044 -0.0211754 -4.68533 -0.659604 2.38394e-009 -1.50828e-010 -8.61749e-010 4.1255e-009 -2.64525e-010 -1.48232e-009 2.38395e-009 -1.50831e-010 -8.61759e-010 7.73091 5.47488 0.417314 2.38394e-009 -1.50833e-010 -8.61742e-010 2.90554 0.965183 0.102902 2.38395e-009 -1.50833e-010 -8.61752e-010 10.2786 0.731801 0.0259123 2.38394e-009 -1.50832e-010 -8.61742e-010 2.22167 -0.733487 -0.20892 7.96951e-014 2.71028e-013 7.21856e-014 -45.0224 -3.38109 15.2221 7.21981 -2.78451 -12.5222 0.383681 -19.4262 2.81496 2.35387e-010 8.71493e-010 1.859e-009 3.75325e-010 1.5225e-009 3.21254e-009 2.35386e-010 8.71494e-010 1.859e-009 -7.73091 5.47488 -0.417314 2.35385e-010 8.71495e-010 1.85901e-009 -2.90554 0.965183 -0.102902 2.35377e-010 8.71494e-010 1.859e-009 -10.2786 0.731801 -0.0259123 2.35392e-010 8.71494e-010 1.85899e-009 -2.22167 -0.733487 0.20892 -2.03217e-016 0 -3.88251e-019 -0.559276 -28.198 14.4125 -0.499111 45.6343 0.717724 -0.446195 -4.5054 -2.78257 2.03217e-016 0 3.88251e-019 -9.74126 -41.4814 -4.77778 0.416896 39.4737 -0.0998813 0.568277 -14.7759 1.07526 
-28.1742 78.469 185.339 8.95028 -19.5592 -179.41 -21.6119 -13.1452 -4.68768 -3.70871 4.47566 -1.26692 7.89199 0.765595 5.84792 4.05132 -3.75791 8.31034 -0 0 0 -0 0 0 8.9995e-014 3.02173e-013 7.196e-014 87.1428 38.4088 -11.096 -14.6948 -7.52895 26.9628 -0.0413814 -5.79614 -0.817412 2.90327e-009 -2.73254e-010 -9.22008e-010 5.02403e-009 -4.76899e-010 -1.58449e-009 2.90328e-009 -2.73258e-010 -9.22017e-010 7.73091 5.47488 0.417314 2.90327e-009 -2.7326e-010 -9.22001e-010 2.90554 0.965183 0.102902 2.90328e-009 -2.7326e-010 -9.22011e-010 10.2786 0.731801 0.0259123 2.90326e-009 -2.73259e-010 -9.22001e-010 2.22167 -0.733487 -0.20892 8.99113e-014 3.02132e-013 7.19104e-014 -54.7068 -3.989 18.3485 8.62389 -3.34602 -15.2449 0.702885 -23.1054 3.4376 2.14793e-010 1.00846e-009 1.97901e-009 3.36998e-010 1.76103e-009 3.41932e-009 2.14792e-010 1.00846e-009 1.979e-009 -7.73091 5.47488 -0.417314 2.14791e-010 1.00846e-009 1.97901e-009 -2.90554 0.965183 -0.102902 2.14784e-010 1.00846e-009 1.979e-009 -10.2786 0.731801 -0.0259123 2.14798e-010 1.00846e-009 1.979e-009 -2.22167 -0.733487 0.20892 -2.03217e-016 0 -3.88251e-019 1.86489 -34.0849 18.3893 -0.948558 56.8456 1.16549 -0.509347 -5.50853 -3.36123 2.03217e-016 0 3.88251e-019 -12.5809 -48.2865 -6.82089 0.481599 45.567 -0.0606561 0.706937 -17.6509 1.47758 
